<svg width="176" height="20" viewBox="0 0 176 20" fill="none" xmlns="http://www.w3.org/2000/svg">
<path d="M8.04 15.38L0.32 10.38V8.34L8.04 3.34V6L2.74 9.32V9.4L8.04 12.72V15.38ZM15.9922 16.24C15.1255 16.24 14.3055 16.04 13.5322 15.64C12.7589 15.2267 12.1322 14.6333 11.6522 13.86C11.1722 13.0733 10.9322 12.1333 10.9322 11.04C10.9322 9.94667 11.1722 9.01333 11.6522 8.24C12.1322 7.45333 12.7589 6.86 13.5322 6.46C14.3055 6.04667 15.1255 5.84 15.9922 5.84C16.8589 5.84 17.6789 6.04667 18.4522 6.46C19.2255 6.86 19.8522 7.45333 20.3322 8.24C20.8122 9.01333 21.0522 9.94667 21.0522 11.04C21.0522 12.1333 20.8122 13.0733 20.3322 13.86C19.8522 14.6333 19.2255 15.2267 18.4522 15.64C17.6789 16.04 16.8589 16.24 15.9922 16.24ZM15.9922 13.86C16.4455 13.86 16.8189 13.7467 17.1122 13.52C17.4189 13.2933 17.6455 12.9667 17.7922 12.54C17.9522 12.1133 18.0322 11.6133 18.0322 11.04C18.0322 10.4667 17.9522 9.96667 17.7922 9.54C17.6455 9.11333 17.4189 8.78667 17.1122 8.56C16.8189 8.33333 16.4455 8.22 15.9922 8.22C15.5389 8.22 15.1589 8.33333 14.8522 8.56C14.5589 8.78667 14.3322 9.11333 14.1722 9.54C14.0255 9.96667 13.9522 10.4667 13.9522 11.04C13.9522 11.6133 14.0255 12.1133 14.1722 12.54C14.3322 12.9667 14.5589 13.2933 14.8522 13.52C15.1589 13.7467 15.5389 13.86 15.9922 13.86ZM38.4366 16.24C37.3032 16.24 36.4832 15.88 35.9766 15.16C35.4699 14.44 35.2166 13.4533 35.2166 12.2V6.08H38.1566V11.82C38.1566 12.4867 38.2566 12.9733 38.4566 13.28C38.6699 13.5867 39.0499 13.74 39.5966 13.74C39.9699 13.74 40.3032 13.66 40.5966 13.5C40.8899 13.34 41.2032 13.04 41.5366 12.6V6.08H44.4766V16H42.0766L41.8566 14.58H41.7766C41.3366 15.0733 40.8499 15.4733 40.3166 15.78C39.7832 16.0867 39.1566 16.24 38.4366 16.24ZM51.8888 16.24C51.0088 16.24 50.1354 16.0933 49.2688 15.8C48.4021 15.4933 47.6554 15.1333 47.0288 14.72L48.2888 12.88C48.8888 13.2667 49.5221 13.56 50.1888 13.76C50.8688 13.96 51.5688 14.06 52.2888 14.06C52.8354 14.06 53.2354 13.98 53.4888 13.82C53.7421 13.6467 53.8688 13.4467 53.8688 13.22C53.8688 13.0733 53.8288 12.9533 53.7488 12.86C53.6821 12.7533 53.5554 12.66 53.3688 12.58C53.1954 12.4867 52.9488 12.4 52.6288 12.32C52.3221 12.24 51.9221 12.1467 51.4288 12.04C50.0821 11.7467 49.1154 11.3467 48.5288 10.84C47.9421 10.3333 47.6488 9.7 47.6488 8.94C47.6488 8.00667 48.0554 7.26 48.8688 6.7C49.6821 6.12667 50.7954 5.84 52.2088 5.84C53.1021 5.84 53.9088 5.98667 54.6288 6.28C55.3621 6.56 55.9888 6.86667 56.5088 7.2L55.1888 8.96C54.6954 8.65333 54.1688 8.42 53.6088 8.26C53.0488 8.1 52.4954 8.02 51.9488 8.02C51.6421 8.02 51.3888 8.05333 51.1888 8.12C50.9888 8.17333 50.8354 8.26667 50.7288 8.4C50.6221 8.52 50.5688 8.65333 50.5688 8.8C50.5688 9.06667 50.7421 9.26667 51.0888 9.4C51.4354 9.52 52.0288 9.67333 52.8688 9.86C53.8821 10.0867 54.6754 10.3467 55.2488 10.64C55.8221 10.9333 56.2154 11.2733 56.4288 11.66C56.6554 12.0333 56.7688 12.4933 56.7688 13.04C56.7688 13.64 56.5821 14.18 56.2088 14.66C55.8488 15.14 55.3021 15.5267 54.5688 15.82C53.8488 16.1 52.9554 16.24 51.8888 16.24ZM65.7209 16.24C64.6676 16.24 63.8276 16.06 63.2009 15.7C62.5876 15.3267 62.1409 14.8133 61.8609 14.16C61.5809 13.5067 61.4409 12.7467 61.4409 11.88V8.38H58.9609V6.2L61.5809 6.08L61.9609 3.04H64.3809V6.08H68.5809V8.38H64.3809V11.86C64.3809 12.3533 64.4543 12.7533 64.6009 13.06C64.7476 13.3667 64.9743 13.5933 65.2809 13.74C65.5876 13.8733 65.9809 13.94 66.4609 13.94C66.8476 13.94 67.2009 13.9067 67.5209 13.84C67.8409 13.7733 68.1476 13.6867 68.4409 13.58L68.9609 15.7C68.5209 15.8333 68.0343 15.9533 67.5009 16.06C66.9809 16.18 66.3876 16.24 65.7209 16.24ZM74.4331 16.24C73.7665 16.24 73.1865 16.1067 72.6931 15.84C72.2131 15.5733 71.8398 15.2133 71.5731 14.76C71.3065 14.3067 71.1731 13.8 71.1731 13.24C71.1731 12.1333 71.6731 11.2867 72.6731 10.7C73.6865 10.1133 75.3665 9.75333 77.7131 9.62C77.6731 9.31333 77.5731 9.05333 77.4131 8.84C77.2531 8.62667 77.0198 8.46667 76.7131 8.36C76.4198 8.24 76.0465 8.18 75.5931 8.18C75.2731 8.18 74.9531 8.22 74.6331 8.3C74.3131 8.36667 73.9798 8.47333 73.6331 8.62C73.2998 8.75333 72.9465 8.91333 72.5731 9.1L71.5331 7.18C71.9865 6.91333 72.4598 6.68 72.9531 6.48C73.4598 6.28 73.9798 6.12667 74.5131 6.02C75.0598 5.9 75.6131 5.84 76.1731 5.84C77.1065 5.84 77.9065 6.00667 78.5731 6.34C79.2398 6.66 79.7531 7.15333 80.1131 7.82C80.4731 8.47333 80.6531 9.30667 80.6531 10.32V16H78.2531L78.0331 14.88H77.9531C77.4598 15.2533 76.9131 15.5733 76.3131 15.84C75.7131 16.1067 75.0865 16.24 74.4331 16.24ZM75.3731 13.96C75.8131 13.96 76.2265 13.8733 76.6131 13.7C76.9998 13.5133 77.3665 13.2867 77.7131 13.02V11.38C76.7398 11.4333 75.9798 11.5333 75.4331 11.68C74.8998 11.8267 74.5265 12.0133 74.3131 12.24C74.0998 12.4667 73.9931 12.7267 73.9931 13.02C73.9931 13.22 74.0465 13.3933 74.1531 13.54C74.2731 13.6867 74.4331 13.7933 74.6331 13.86C74.8465 13.9267 75.0931 13.96 75.3731 13.96ZM86.3053 16L82.5653 6.08H85.5253L87.0853 10.76C87.2453 11.2533 87.3986 11.7533 87.5453 12.26C87.692 12.7667 87.8386 13.2867 87.9853 13.82H88.0653C88.212 13.2867 88.352 12.7667 88.4853 12.26C88.632 11.7533 88.7853 11.2533 88.9453 10.76L90.5053 6.08H93.3253L89.6853 16H86.3053ZM99.9375 16.24C99.0708 16.24 98.2508 16.04 97.4775 15.64C96.7042 15.2267 96.0775 14.6333 95.5975 13.86C95.1175 13.0733 94.8775 12.1333 94.8775 11.04C94.8775 9.94667 95.1175 9.01333 95.5975 8.24C96.0775 7.45333 96.7042 6.86 97.4775 6.46C98.2508 6.04667 99.0708 5.84 99.9375 5.84C100.804 5.84 101.624 6.04667 102.398 6.46C103.171 6.86 103.798 7.45333 104.278 8.24C104.758 9.01333 104.998 9.94667 104.998 11.04C104.998 12.1333 104.758 13.0733 104.278 13.86C103.798 14.6333 103.171 15.2267 102.398 15.64C101.624 16.04 100.804 16.24 99.9375 16.24ZM99.9375 13.86C100.391 13.86 100.764 13.7467 101.058 13.52C101.364 13.2933 101.591 12.9667 101.738 12.54C101.898 12.1133 101.978 11.6133 101.978 11.04C101.978 10.4667 101.898 9.96667 101.738 9.54C101.591 9.11333 101.364 8.78667 101.058 8.56C100.764 8.33333 100.391 8.22 99.9375 8.22C99.4842 8.22 99.1042 8.33333 98.7975 8.56C98.5042 8.78667 98.2775 9.11333 98.1175 9.54C97.9708 9.96667 97.8975 10.4667 97.8975 11.04C97.8975 11.6133 97.9708 12.1133 98.1175 12.54C98.2775 12.9667 98.5042 13.2933 98.7975 13.52C99.1042 13.7467 99.4842 13.86 99.9375 13.86ZM123.482 16V8.38H119.482V6.08H126.422V16H123.482ZM124.822 4.52C124.262 4.52 123.795 4.36 123.422 4.04C123.049 3.70667 122.862 3.27333 122.862 2.74C122.862 2.19333 123.049 1.75333 123.422 1.42C123.795 1.07333 124.262 0.899999 124.822 0.899999C125.395 0.899999 125.862 1.07333 126.222 1.42C126.595 1.75333 126.782 2.19333 126.782 2.74C126.782 3.27333 126.595 3.70667 126.222 4.04C125.862 4.36 125.395 4.52 124.822 4.52ZM134.394 16.24C133.727 16.24 133.147 16.1067 132.654 15.84C132.174 15.5733 131.801 15.2133 131.534 14.76C131.267 14.3067 131.134 13.8 131.134 13.24C131.134 12.1333 131.634 11.2867 132.634 10.7C133.647 10.1133 135.327 9.75333 137.674 9.62C137.634 9.31333 137.534 9.05333 137.374 8.84C137.214 8.62667 136.981 8.46667 136.674 8.36C136.381 8.24 136.007 8.18 135.554 8.18C135.234 8.18 134.914 8.22 134.594 8.3C134.274 8.36667 133.941 8.47333 133.594 8.62C133.261 8.75333 132.907 8.91333 132.534 9.1L131.494 7.18C131.947 6.91333 132.421 6.68 132.914 6.48C133.421 6.28 133.941 6.12667 134.474 6.02C135.021 5.9 135.574 5.84 136.134 5.84C137.067 5.84 137.867 6.00667 138.534 6.34C139.201 6.66 139.714 7.15333 140.074 7.82C140.434 8.47333 140.614 9.30667 140.614 10.32V16H138.214L137.994 14.88H137.914C137.421 15.2533 136.874 15.5733 136.274 15.84C135.674 16.1067 135.047 16.24 134.394 16.24ZM135.334 13.96C135.774 13.96 136.187 13.8733 136.574 13.7C136.961 13.5133 137.327 13.2867 137.674 13.02V11.38C136.701 11.4333 135.941 11.5333 135.394 11.68C134.861 11.8267 134.487 12.0133 134.274 12.24C134.061 12.4667 133.954 12.7267 133.954 13.02C133.954 13.22 134.007 13.3933 134.114 13.54C134.234 13.6867 134.394 13.7933 134.594 13.86C134.807 13.9267 135.054 13.96 135.334 13.96ZM147.826 16.24C146.946 16.24 146.073 16.0933 145.206 15.8C144.34 15.4933 143.593 15.1333 142.966 14.72L144.226 12.88C144.826 13.2667 145.46 13.56 146.126 13.76C146.806 13.96 147.506 14.06 148.226 14.06C148.773 14.06 149.173 13.98 149.426 13.82C149.68 13.6467 149.806 13.4467 149.806 13.22C149.806 13.0733 149.766 12.9533 149.686 12.86C149.62 12.7533 149.493 12.66 149.306 12.58C149.133 12.4867 148.886 12.4 148.566 12.32C148.26 12.24 147.86 12.1467 147.366 12.04C146.02 11.7467 145.053 11.3467 144.466 10.84C143.88 10.3333 143.586 9.7 143.586 8.94C143.586 8.00667 143.993 7.26 144.806 6.7C145.62 6.12667 146.733 5.84 148.146 5.84C149.04 5.84 149.846 5.98667 150.566 6.28C151.3 6.56 151.926 6.86667 152.446 7.2L151.126 8.96C150.633 8.65333 150.106 8.42 149.546 8.26C148.986 8.1 148.433 8.02 147.886 8.02C147.58 8.02 147.326 8.05333 147.126 8.12C146.926 8.17333 146.773 8.26667 146.666 8.4C146.56 8.52 146.506 8.65333 146.506 8.8C146.506 9.06667 146.68 9.26667 147.026 9.4C147.373 9.52 147.966 9.67333 148.806 9.86C149.82 10.0867 150.613 10.3467 151.186 10.64C151.76 10.9333 152.153 11.2733 152.366 11.66C152.593 12.0333 152.706 12.4933 152.706 13.04C152.706 13.64 152.52 14.18 152.146 14.66C151.786 15.14 151.24 15.5267 150.506 15.82C149.786 16.1 148.893 16.24 147.826 16.24ZM155.378 19.2L161.958 1.8H164.418L157.838 19.2H155.378ZM167.851 15.38V12.72L173.151 9.4V9.32L167.851 6V3.34L175.571 8.34V10.38L167.851 15.38Z" fill="white"/>
<path d="M28.8444 16.24C27.7377 16.24 26.731 15.9933 25.8244 15.5C24.9177 14.9933 24.1977 14.2467 23.6644 13.26C23.131 12.26 22.8644 11.0267 22.8644 9.56C22.8644 8.10667 23.131 6.87333 23.6644 5.86C24.1977 4.83333 24.9177 4.05333 25.8244 3.52C26.7444 2.98667 27.7644 2.72 28.8844 2.72C29.7644 2.72 30.5177 2.89333 31.1444 3.24C31.771 3.57333 32.291 3.95333 32.7044 4.38L31.0844 6.2C30.8044 5.92 30.4977 5.69333 30.1644 5.52C29.831 5.34667 29.4044 5.26 28.8844 5.26C28.3244 5.26 27.8177 5.43333 27.3644 5.78C26.911 6.11333 26.551 6.59333 26.2844 7.22C26.031 7.84667 25.9044 8.59333 25.9044 9.46C25.9044 10.3533 26.0177 11.12 26.2444 11.76C26.471 12.3867 26.8177 12.8667 27.2844 13.2C27.751 13.5333 28.3244 13.7 29.0044 13.7C29.2577 13.7 29.4977 13.6667 29.7244 13.6C29.9644 13.5333 30.151 13.4333 30.2844 13.3V11.06H28.3844V8.66H32.9244V14.66C32.4844 15.0733 31.8977 15.44 31.1644 15.76C30.4444 16.08 29.671 16.24 28.8444 16.24Z" fill="#DE1486"/>
<path d="M107.33 16V2.96H110.93C112.196 2.96 113.296 3.18667 114.23 3.64C115.176 4.09333 115.91 4.8 116.43 5.76C116.95 6.70667 117.21 7.92667 117.21 9.42C117.21 10.9133 116.95 12.1467 116.43 13.12C115.923 14.0933 115.21 14.82 114.29 15.3C113.37 15.7667 112.31 16 111.11 16H107.33ZM110.29 13.62H110.77C111.463 13.62 112.063 13.4867 112.57 13.22C113.076 12.9533 113.47 12.5133 113.75 11.9C114.043 11.2867 114.19 10.46 114.19 9.42C114.19 8.38 114.043 7.56667 113.75 6.98C113.47 6.38 113.076 5.96 112.57 5.72C112.063 5.46667 111.463 5.34 110.77 5.34H110.29V13.62Z" fill="#4143A4"/>
</svg>
